# xmcd
#
# Track frame offsets: 
#        150
#        10721
#        23674
#        36367
#        46295
#        58926
#        68035
#        79366
#        88398
#        98711
#        112368
#        121766
#        131073
#        137887
#
# Disc length: 2201 seconds
#
# Revision: 0
# Processed by: cddbd v1.5.1PL2 Copyright (c) Steve Scherf et al.
# Submitted via: ExactAudioCopy v0.95a5
#
DISCID=c708970e
DTITLE=The Fairytales - No way to stop
DYEAR=1900
DGENRE=
TTITLE0=No way to stop
TTITLE1=A little too long
TTITLE2=Zombie Jamboree
TTITLE3=You belong to me
TTITLE4=Day O - Bananaboat song
TTITLE5=Book of love
TTITLE6=In der Milchbar
TTITLE7=I wonder why
TTITLE8=Countdown to love
TTITLE9=The lion sleeps tonight
TTITLE10=Man from the moon
TTITLE11=It´s too late
TTITLE12=Playing the game
TTITLE13=Monster Mash
EXTD=
EXTT0=
EXTT1=
EXTT2=
EXTT3=
EXTT4=
EXTT5=
EXTT6=
EXTT7=
EXTT8=
EXTT9=
EXTT10=
EXTT11=
EXTT12=
EXTT13=
PLAYORDER=
